<svg xmlns="http://www.w3.org/2000/svg" viewBox="0 0 128 128" role="img" aria-label="Cafe Ops logo">
  <rect width="128" height="128" rx="24" fill="#111111"/>
  <circle cx="64" cy="64" r="44" fill="none" stroke="#ffffff" stroke-width="8"/>
  <path d="M45 76c0 8 7 14 19 14s19-6 19-14" fill="none" stroke="#ffffff" stroke-width="7" stroke-linecap="round"/>
  <path d="M42 50h44v14c0 10-8 18-18 18h-8c-10 0-18-8-18-18V50z" fill="none" stroke="#ffffff" stroke-width="7" stroke-linejoin="round"/>
  <path d="M86 56h8c7 0 12 5 12 12s-5 12-12 12h-6" fill="none" stroke="#ffffff" stroke-width="7" stroke-linecap="round"/>
  <path d="M52 36c-3-5 4-8 1-13M65 36c-3-5 4-8 1-13M78 36c-3-5 4-8 1-13" fill="none" stroke="#ffffff" stroke-width="5" stroke-linecap="round"/>
</svg>
